<?xml version="1.0" encoding="utf-8"?>
<!-- Generator: Adobe Illustrator 22.0.1, SVG Export Plug-In . SVG Version: 6.00 Build 0)  -->
<svg version="1.1" id="Layer_2" xmlns="http://www.w3.org/2000/svg" xmlns:xlink="http://www.w3.org/1999/xlink" x="0px" y="0px"
	 viewBox="0 0 32 32" style="enable-background:new 0 0 32 32;" xml:space="preserve">
<style type="text/css">
	.st0{fill:#EEEEEE;}
</style>
<path class="st0" d="M27.7,1.4H4.3c-2.1,0-3.8,1.7-3.8,3.8v15.5c0,2.1,1.7,3.8,3.8,3.8H6c0.5,0,0.8,0.4,0.8,0.8v2.4
	c0,1,0.6,2,1.5,2.4c0.4,0.2,0.8,0.3,1.1,0.3c0.6,0,1.2-0.2,1.7-0.6l6.1-5l0.1-0.1c0.2-0.2,0.4-0.2,0.6-0.2h9.8
	c2.1,0,3.8-1.7,3.8-3.8V5.3C31.5,3.2,29.8,1.4,27.7,1.4z M28.5,20.8c0,0.5-0.4,0.8-0.8,0.8h-9.8c-1,0-1.9,0.4-2.6,1.1l-5.5,4.5v-1.7
	c0-2.1-1.7-3.8-3.8-3.8H4.3c-0.5,0-0.8-0.4-0.8-0.8V5.3c0-0.5,0.4-0.8,0.8-0.8h23.3c0.5,0,0.8,0.4,0.8,0.8
	C28.5,5.3,28.5,20.8,28.5,20.8z"/>
</svg>
