<?xml version="1.0" encoding="utf-8"?>
<!-- Generator: Adobe Illustrator 22.0.1, SVG Export Plug-In . SVG Version: 6.00 Build 0)  -->
<svg version="1.1" id="레이어_1" xmlns="http://www.w3.org/2000/svg" xmlns:xlink="http://www.w3.org/1999/xlink" x="0px"
	 y="0px" viewBox="0 0 32 32" style="enable-background:new 0 0 32 32;" xml:space="preserve">
<style type="text/css">
	.st0{fill:#EEEEEE;}
</style>
<title></title>
<g id="user_people_person_users_man">
	<path class="st0" d="M23.7,16.2c-0.4-0.4-1-0.4-1.4,0c-0.4,0.4-0.4,1,0,1.4c1.7,1.7,2.7,4,2.7,6.4c0,1.2-3.5,3-9,3s-9-1.8-9-3
		c0-2.4,0.9-4.7,2.6-6.4c0.4-0.4,0.4-1,0-1.4c-0.4-0.4-1-0.4-1.4,0C6.1,18.3,5,21.1,5,24c0,3.3,5.7,5,11,5s11-1.8,11-5
		C27,21.1,25.8,18.2,23.7,16.2z"/>
	<path class="st0" d="M16,17c3.9,0,7-3.1,7-7s-3.1-7-7-7s-7,3.1-7,7S12.1,17,16,17z M16,5c2.8,0,5,2.2,5,5s-2.2,5-5,5s-5-2.2-5-5
		S13.2,5,16,5z"/>
</g>
</svg>
