<?xml version="1.0" encoding="utf-8"?>
<!-- Generator: Adobe Illustrator 22.0.1, SVG Export Plug-In . SVG Version: 6.00 Build 0)  -->
<svg version="1.1" id="레이어_1" xmlns="http://www.w3.org/2000/svg" xmlns:xlink="http://www.w3.org/1999/xlink" x="0px"
	 y="0px" viewBox="0 0 24 24" style="enable-background:new 0 0 24 24;" xml:space="preserve">
<style type="text/css">
	.st0{fill:#EEEEEE;}
</style>
<path class="st0" d="M18.6,20h-2.7c-0.3,1-0.9,1.8-1.8,2.4c-1.3,0.8-2.9,0.8-4.2,0c-1-0.6-1.6-1.3-1.8-2.4H2v-3.4l0.3-0.3
	c0.1-0.1,1-0.9,1.2-1.1C4.5,14.1,5,12.6,5,10c0-1.1,0.2-2.2,0.5-3.1L1.3,2.7l1.4-1.4l20,20l-1.4,1.4L18.6,20z M16.6,18L7.1,8.5
	C7,9,7,9.5,7,10c0,3.1-0.7,5.1-2,6.5c-0.2,0.2-0.7,0.6-1,0.9V18H16.6z M10.2,20c0.1,0.3,0.4,0.5,0.8,0.7c0.6,0.4,1.4,0.4,2.1,0
	c0.3-0.2,0.5-0.4,0.7-0.7H10.2z M19,10v4.8l-1.7-1.7C17.1,12.2,17,11.2,17,10c0-3.8-2.3-6-5-6C11,4,10,4.3,9.2,5L7.8,3.5
	c0.7-0.6,1.5-1,2.4-1.3c0.1-0.3,0.3-0.5,0.5-0.7c0.8-0.7,2-0.7,2.7,0c0.2,0.2,0.4,0.5,0.5,0.7C16.8,3.1,19,5.9,19,10z"/>
</svg>
