<?xml version="1.0" encoding="utf-8"?>
<!-- Generator: Adobe Illustrator 22.0.1, SVG Export Plug-In . SVG Version: 6.00 Build 0)  -->
<svg version="1.1" id="Layer_4" xmlns="http://www.w3.org/2000/svg" xmlns:xlink="http://www.w3.org/1999/xlink" x="0px" y="0px"
	 viewBox="0 0 128 128" style="enable-background:new 0 0 128 128;" xml:space="preserve">
<style type="text/css">
	.st0{fill:#EEEEEE;}
</style>
<path class="st0" d="M64,45.5c10.2,0,18.6,8.3,18.6,18.5S74.2,82.6,64,82.6S45.5,74.2,45.5,64l0,0C45.5,53.8,53.8,45.5,64,45.5
	 M64,35.5c-15.8,0-28.5,12.8-28.5,28.5S48.2,92.6,64,92.6S92.6,79.8,92.6,64S79.8,35.5,64,35.5L64,35.5z"/>
<path class="st0" d="M70.5,26v4.8l6.2,2.6c2.7,1.1,5.2,2.6,7.5,4.4l5.3,4.1l4.1-2.4l6.5,11.2L96,53l0.9,6.6c0.4,2.9,0.4,5.8,0,8.7
	L96,75l4.1,2.4l-6.5,11.2l-4.1-2.4l-5.3,4.1c-2.3,1.8-4.8,3.2-7.5,4.4l-6.2,2.6v4.8h-13v-4.8l-6.2-2.6c-2.7-1.1-5.2-2.6-7.5-4.4
	l-5.3-4.1l-4.1,2.4l-6.5-11.2L32,75l-0.9-6.6c-0.4-2.9-0.4-5.8,0-8.7L32,53l-4.1-2.4l6.5-11.2l4.1,2.4l5.3-4.1
	c2.3-1.8,4.8-3.2,7.5-4.4l6.2-2.6V26H70.5 M75.5,16h-23l-5,5v3.1c-3.5,1.4-6.8,3.4-9.8,5.7L35,28.2l-6.8,1.8L16.7,50
	c0.7,2.7,1.1,4.2,1.8,6.8l2.7,1.5c-0.5,3.8-0.5,7.6,0,11.3l-2.7,1.5c-0.7,2.7-1.1,4.2-1.8,6.8l11.5,19.8l6.8,1.8l2.7-1.5
	c3,2.3,6.3,4.2,9.8,5.7v3.1l5,5h23l5-5v-3.1c3.5-1.4,6.8-3.4,9.8-5.7l2.7,1.5l6.8-1.8L111.3,78c-0.7-2.7-1.1-4.2-1.8-6.8l-2.7-1.5
	c0.5-3.8,0.5-7.6,0-11.3l2.7-1.5c0.7-2.7,1.1-4.2,1.8-6.8L99.8,30.1L93,28.2l-2.7,1.5c-3-2.3-6.3-4.2-9.8-5.7V21L75.5,16L75.5,16z"
	/>
</svg>
