<?xml version="1.0" encoding="utf-8"?>
<!-- Generator: Adobe Illustrator 22.0.1, SVG Export Plug-In . SVG Version: 6.00 Build 0)  -->
<svg version="1.1" id="레이어_1" xmlns="http://www.w3.org/2000/svg" xmlns:xlink="http://www.w3.org/1999/xlink" x="0px"
	 y="0px" viewBox="0 0 24 24" style="enable-background:new 0 0 24 24;" xml:space="preserve">
<style type="text/css">
	.st0{fill:#EEEEEE;}
</style>
<path class="st0" d="M10.1,2.3c0.1-0.3,0.3-0.5,0.5-0.7c0.8-0.7,2-0.7,2.7,0c0.2,0.2,0.4,0.5,0.5,0.7C16.8,3.1,19,5.9,19,10
	c0,2.6,0.5,4.1,1.5,5.2c0.2,0.3,1.1,1,1.2,1.1l0.3,0.3V20h-6.1c-0.3,1-0.9,1.8-1.8,2.4c-1.3,0.8-2.9,0.8-4.2,0
	c-1-0.6-1.6-1.3-1.8-2.4H2v-3.4l0.3-0.3c0.1-0.1,1-0.9,1.2-1.1C4.5,14.1,5,12.6,5,10C5,5.9,7.2,3.1,10.1,2.3z M10.2,20
	c0.1,0.3,0.4,0.5,0.8,0.7c0.6,0.4,1.4,0.4,2.1,0c0.3-0.2,0.5-0.4,0.7-0.7H10.2z M20,17.5c-0.3-0.3-0.7-0.7-1-0.9
	c-1.3-1.5-2-3.4-2-6.5c0-3.8-2.3-6-5-6c-2.7,0-5,2.2-5,6c0,3.1-0.7,5.1-2,6.5c-0.2,0.2-0.7,0.6-1,0.9V18h16V17.5z"/>
</svg>
